Coordinates
version=1
nRows=32
nColumns=38
inDegrees=no

Units are S.I. units (second, meters, Newtons, ...)
If the header above contains a line with 'inDegrees', this indicates whether rotational values are in degrees (yes) or radians (no).

endheader
time	pelvis_tilt	pelvis_list	pelvis_rotation	pelvis_tx	pelvis_ty	pelvis_tz	hip_flexion_r	hip_adduction_r	hip_rotation_r	knee_angle_r	ankle_angle_r	subtalar_angle_r	mtp_angle_r	hip_flexion_l	hip_adduction_l	hip_rotation_l	knee_angle_l	ankle_angle_l	subtalar_angle_l	mtp_angle_l	lumbar_extension	lumbar_bending	lumbar_rotation	arm_flex_r	arm_add_r	arm_rot_r	elbow_flex_r	pro_sup_r	wrist_flex_r	wrist_dev_r	arm_flex_l	arm_add_l	arm_rot_l	elbow_flex_l	pro_sup_l	wrist_flex_l	wrist_dev_l
1.94	-0.166231	-0.0362888	-0.128306	1.00327	0.98375	-0.346284	0.0553296	0.144999	0.125994	-0.657385	0.252701	0.0519412	3.09509e-06	0.908216	-0.177293	-0.146196	-1.91334	0.195991	0.0499489	-5.31964e-05	-0.0662985	0.0563645	0.209729	-0.257173	-0.32674	-0.080535	2.06163	1.96836	-0.00659817	0.0450029	-0.764638	-0.328796	-0.0852308	1.93795	1.88619	0.0627007	0.0400454
1.95	-0.174967	-0.0216719	-0.112492	1.00639	0.988511	-0.346628	-0.00627955	0.113556	0.105342	-0.594518	0.149663	0.0519412	3.09509e-06	0.954711	-0.161551	-0.162039	-1.82564	0.200264	0.0499489	-5.31964e-05	-0.0484051	0.0368082	0.215821	-0.247369	-0.314149	-0.0782682	2.12258	1.9964	-0.00659817	0.0450029	-0.816105	-0.338524	-0.108331	1.97891	1.87889	0.0627007	0.0400454
1.96	-0.184072	-0.00795584	-0.0963585	1.0097	0.993018	-0.347161	-0.0616971	0.0853339	0.0835528	-0.539864	0.0424549	0.0519412	3.09509e-06	0.991856	-0.143195	-0.179041	-1.72675	0.203239	0.0499489	-5.31964e-05	-0.0303563	0.0182119	0.219818	-0.240381	-0.302963	-0.0755157	2.18436	2.02706	-0.00659817	0.0450029	-0.86703	-0.345235	-0.135301	2.0203	1.87607	0.0627007	0.0400454
1.97	-0.192913	0.00411414	-0.0805056	1.01294	0.997114	-0.347843	-0.109561	0.0622818	0.0639984	-0.498914	-0.0611555	0.0519412	3.09509e-06	1.01909	-0.122423	-0.194894	-1.61768	0.204807	0.0499489	-5.31964e-05	-0.0134887	0.00142312	0.222225	-0.235322	-0.294166	-0.0714272	2.24323	2.05909	-0.00659817	0.0450029	-0.915272	-0.348582	-0.164914	2.05953	1.87553	0.0627007	0.0400454
1.98	-0.200838	0.0138964	-0.0655338	1.01591	1.00072	-0.34856	-0.148968	0.0460059	0.0500412	-0.476421	-0.153766	0.0519412	3.09509e-06	1.03601	-0.0997022	-0.207607	-1.49957	0.204546	0.0499489	-5.31964e-05	0.000993632	-0.0128514	0.223659	-0.231812	-0.28835	-0.0657201	2.29583	2.09081	-0.00659817	0.0450029	-0.958698	-0.34853	-0.195588	2.0946	1.87524	0.0627007	0.0400454
1.99	-0.207264	0.0209588	-0.0519546	1.01851	1.0038	-0.349174	-0.179524	0.0376335	0.044339	-0.475859	-0.229325	0.0519412	3.09509e-06	1.04247	-0.0758051	-0.21577	-1.37386	0.201862	0.0499489	-5.31964e-05	0.0121565	-0.024079	0.224694	-0.229928	-0.285655	-0.0586602	2.33932	2.12035	-0.00659817	0.0450029	-0.995432	-0.345329	-0.225599	2.12409	1.87391	0.0627007	0.0400454
2	-0.211745	0.0250999	-0.040093	1.02071	1.0063	-0.349573	-0.201302	0.037659	0.048144	-0.499052	-0.284013	0.0519412	3.09509e-06	1.03864	-0.0517346	-0.218732	-1.24254	0.196204	0.0499489	-5.31964e-05	0.0194494	-0.0319481	0.225714	-0.230066	-0.285779	-0.0509437	2.37147	2.14571	-0.00659817	0.0450029	-1.02409	-0.33945	-0.253299	2.14726	1.87109	0.0627007	0.0400454
2.01	-0.214017	0.0263429	-0.0300303	1.02254	1.00818	-0.349703	-0.214725	0.0458005	0.0607863	-0.546057	-0.316794	0.0519412	3.09509e-06	1.02516	-0.0285728	-0.216642	-1.10843	0.187298	0.0499489	-5.31964e-05	0.0227606	-0.0364005	0.226819	-0.232767	-0.288066	-0.0435356	2.39074	2.16506	-0.00659817	0.0450029	-1.04392	-0.331507	-0.277302	2.16393	1.86712	0.0627007	0.0400454
2.02	-0.214028	0.0249407	-0.0216137	1.02406	1.00937	-0.349592	-0.220386	0.0608944	0.0795622	-0.615327	-0.329409	0.0519412	3.09509e-06	1.00324	-0.00733467	-0.210441	-0.975264	0.175305	0.0499489	-5.31964e-05	0.0224134	-0.0376443	0.227823	-0.238541	-0.291638	-0.0375098	2.39623	2.17706	-0.00659817	0.0450029	-1.05484	-0.322165	-0.296629	2.1744	1.86274	0.0627007	0.0400454
2.03	-0.211938	0.0213948	-0.0145294	1.02534	1.00979	-0.349332	-0.218877	0.0808943	0.10017	-0.704076	-0.325727	0.0519412	3.09509e-06	0.974674	0.0111397	-0.201764	-0.847711	0.160859	0.0499489	-5.31964e-05	0.0190968	-0.036131	0.228328	-0.247709	-0.295577	-0.0339068	2.38777	2.18126	-0.00659817	0.0450029	-1.05738	-0.312056	-0.310768	2.17929	1.8588	0.0627007	0.0400454
2.04	-0.208187	0.0164094	-0.00840399	1.02643	1.00936	-0.349036	-0.210731	0.103018	0.1176	-0.808711	-0.310631	0.0519412	3.09509e-06	0.941753	0.0262719	-0.192731	-0.731137	0.144959	0.0499489	-5.31964e-05	0.0136973	-0.0325143	0.22782	-0.260293	-0.299087	-0.0335848	2.36573	2.17826	-0.00659817	0.0450029	-1.05251	-0.301709	-0.31967	2.1794	1.85594	0.0627007	0.0400454
2.05	-0.203301	0.0107381	-0.00287021	1.02737	1.00802	-0.348797	-0.196356	0.12402	0.127227	-0.925255	-0.288755	0.0519412	3.09509e-06	0.907083	0.0378259	-0.185609	-0.631169	0.128797	0.0499489	-5.31964e-05	0.00719077	-0.0276318	0.225769	-0.275952	-0.301614	-0.0370516	2.33097	2.1695	-0.00659817	0.0450029	-1.0414	-0.291509	-0.323651	2.1755	1.85445	0.0627007	0.0400454
2.06	-0.197825	0.00520595	0.00238554	1.0282	1.00573	-0.348688	-0.176066	0.140638	0.125762	-1.04974	-0.263489	0.0519412	3.09509e-06	0.873311	0.0459736	-0.182323	-0.55309	0.113615	0.0499489	-5.31964e-05	0.000475693	-0.0224103	0.221687	-0.293986	-0.302898	-0.0443233	2.28468	2.15694	-0.00659817	0.0450029	-1.02519	-0.281699	-0.323258	2.1682	1.85421	0.0627007	0.0400454
2.07	-0.19228	0.000649064	0.00760726	1.02892	1.00249	-0.348757	-0.15011	0.15002	0.111821	-1.17848	-0.236563	0.0519412	3.09509e-06	0.842797	0.0513416	-0.183983	-0.501182	0.100717	0.0499489	-5.31964e-05	-0.00577674	-0.0178087	0.215159	-0.313417	-0.302934	-0.0548851	2.22823	2.1426	-0.00659817	0.0450029	-1.00479	-0.272415	-0.319107	2.15784	1.85477	0.0627007	0.0400454
2.08	-0.187123	-0.00214051	0.012951	1.0295	0.998286	-0.349035	-0.118662	0.150116	0.0861106	-1.30831	-0.208196	0.0519412	3.09509e-06	0.817313	0.0549713	-0.190598	-0.47812	0.0916501	0.0499489	-5.31964e-05	-0.0111917	-0.0147611	0.205904	-0.333135	-0.301904	-0.0677882	2.16316	2.12812	-0.00659817	0.0450029	-0.980745	-0.263738	-0.311753	2.14445	1.85547	0.0627007	0.0400454
2.09	-0.18268	-0.00246853	0.0184678	1.02986	0.993171	-0.349531	-0.0817918	0.139931	0.0512073	-1.43663	-0.17768	0.0519412	3.09509e-06	0.797795	0.0582003	-0.201077	-0.484442	0.0883946	0.0499489	-5.31964e-05	-0.0157084	-0.0141148	0.19381	-0.352094	-0.300077	-0.0818722	2.09122	2.1146	-0.00659817	0.0450029	-0.953185	-0.255755	-0.301607	2.12782	1.85565	0.0627007	0.0400454
2.1	-0.1791	0.000206679	0.0240723	1.02992	0.987236	-0.350245	-0.0394635	0.119667	0.0110621	-1.56134	-0.144097	0.0519412	3.09509e-06	0.784142	0.0624591	-0.213559	-0.518203	0.0933128	0.0499489	-5.31964e-05	-0.0195534	-0.0165422	0.178989	-0.369507	-0.297731	-0.0960299	2.01449	2.10246	-0.00659817	0.0450029	-0.921876	-0.248586	-0.288919	2.10757	1.85476	0.0627007	0.0400454
2.11	-0.17636	0.00620283	0.0295288	1.02958	0.980739	-0.351128	0.00842709	0.0906735	-0.0296511	-1.68066	-0.106936	0.0519412	3.09509e-06	0.775102	0.0690165	-0.225952	-0.574844	0.108705	0.0499489	-5.31964e-05	-0.0231709	-0.0224482	0.161805	-0.385004	-0.295115	-0.109431	1.93544	2.09141	-0.00659817	0.0450029	-0.88635	-0.242386	-0.273827	2.0834	1.85255	0.0627007	0.0400454
2.12	-0.174263	0.0155271	0.0344542	1.02878	0.974182	-0.352083	0.0619953	0.0552364	-0.066252	-1.79295	-0.0664202	0.0519412	3.09509e-06	0.768347	0.078753	-0.236468	-0.647436	0.136047	0.0499489	-5.31964e-05	-0.0270919	-0.0319114	0.142875	-0.398714	-0.292431	-0.121647	1.85702	2.08049	-0.00659817	0.0450029	-0.846127	-0.237302	-0.256467	2.05526	1.84913	0.0627007	0.0400454
2.13	-0.1724	0.0278375	0.0383254	1.02753	0.968086	-0.352983	0.121283	0.0163778	-0.0946481	-1.89648	-0.0235481	0.0519412	3.09509e-06	0.760829	0.0919456	-0.243958	-0.727497	0.175331	0.0499489	-5.31964e-05	-0.0317524	-0.0445764	0.123002	-0.411243	-0.289866	-0.132662	1.7825	2.06817	-0.00659817	0.0450029	-0.800977	-0.233384	-0.237131	2.02366	1.84503	0.0627007	0.0400454
2.14	-0.170449	0.0424416	0.0405785	1.02589	0.962743	-0.353721	0.186112	-0.0224735	-0.111864	-1.98943	0.0200999	0.0519412	3.09509e-06	0.749273	0.108176	-0.247969	-0.806236	0.224754	0.0499489	-5.31964e-05	-0.0374347	-0.0596134	0.103063	-0.423554	-0.287617	-0.142771	1.71524	2.05274	-0.00659817	0.0450029	-0.751183	-0.2305	-0.216424	1.98986	1.84108	0.0627007	0.0400454
2.15	-0.168161	0.0582795	0.0407145	1.02391	0.958277	-0.354245	0.256006	-0.0579133	-0.116459	-2.06983	0.062653	0.0519412	3.09509e-06	0.7308	0.126426	-0.248613	-0.875847	0.280877	0.0499489	-5.31964e-05	-0.0441356	-0.0758067	0.0838141	-0.436763	-0.285921	-0.152408	1.65832	2.03273	-0.00659817	0.0450029	-0.69773	-0.22828	-0.195371	1.95597	1.83821	0.0627007	0.0400454
2.16	-0.165431	0.0740372	0.0384254	1.02172	0.954836	-0.354517	0.330118	-0.0869925	-0.108741	-2.13573	0.102255	0.0519412	3.09509e-06	0.703378	0.145259	-0.246391	-0.930483	0.339122	0.0499489	-5.31964e-05	-0.0515499	-0.0916795	0.0657328	-0.451924	-0.285042	-0.161987	1.61419	2.00746	-0.00659817	0.0450029	-0.642318	-0.226133	-0.175395	1.92484	1.83722	0.0627007	0.0400454
2.17	-0.16224	0.0882728	0.0336657	1.01949	0.952645	-0.354501	0.40722	-0.107569	-0.0906957	-2.18536	0.137324	0.0519412	3.09509e-06	0.666058	0.163033	-0.242041	-0.9667	0.394366	0.0499489	-5.31964e-05	-0.0590919	-0.105659	0.0489624	-0.469869	-0.285228	-0.171827	1.58429	1.97752	-0.00659817	0.0450029	-0.587194	-0.223347	-0.15812	1.89976	1.83849	0.0627007	0.0400454
2.18	-0.158686	0.0995853	0.0266557	1.01746	0.951884	-0.354202	0.485708	-0.118468	-0.0656263	-2.21728	0.166719	0.0519412	3.09509e-06	0.618892	0.178076	-0.236407	-0.983378	0.441451	0.0499489	-5.31964e-05	-0.0660407	-0.116195	0.0334056	-0.491141	-0.286647	-0.182194	1.56894	1.94489	-0.00659817	0.0450029	-0.5348	-0.21923	-0.145044	1.88389	1.84183	0.0627007	0.0400454
2.19	-0.154967	0.10675	0.017794	1.01584	0.952598	-0.353694	0.563668	-0.119458	-0.0375783	-2.23053	0.189822	0.0519412	3.09509e-06	0.562676	0.188845	-0.230365	-0.981266	0.47557	0.0499489	-5.31964e-05	-0.071693	-0.121867	0.0189194	-0.516032	-0.289314	-0.193384	1.56737	1.91265	-0.00659817	0.0450029	-0.487343	-0.213268	-0.137161	1.87968	1.84643	0.0627007	0.0400454
2.2	-0.15132	0.108819	0.00752801	1.0148	0.954723	-0.353082	0.638982	-0.111124	-0.0106828	-2.22469	0.20652	0.0519412	3.09509e-06	0.498624	0.194093	-0.224782	-0.962334	0.492557	0.0499489	-5.31964e-05	-0.0755033	-0.121508	0.00549838	-0.544664	-0.293053	-0.20578	1.57792	1.88422	-0.00659817	0.0450029	-0.446436	-0.205231	-0.134692	1.88844	1.85106	0.0627007	0.0400454
2.21	-0.147918	0.105208	-0.00374434	1.01449	0.958175	-0.352446	0.709479	-0.0946978	0.0114485	-2.1998	0.217131	0.0519412	3.09509e-06	0.428095	0.193023	-0.22049	-0.929146	0.489168	0.0499489	-5.31964e-05	-0.0771561	-0.114369	-0.00664811	-0.577033	-0.297503	-0.219784	1.59838	1.86224	-0.00659817	0.0450029	-0.412911	-0.195221	-0.137039	1.91008	1.8543	0.0627007	0.0400454
2.22	-0.144832	0.0958198	-0.0157087	1.01501	0.962855	-0.351826	0.773126	-0.0718593	0.0261847	-2.15642	0.222269	0.0519412	3.09509e-06	0.352451	0.185414	-0.21822	-0.884387	0.463379	0.0499489	-5.31964e-05	-0.0765845	-0.100242	-0.0171597	-0.61301	-0.302177	-0.235677	1.62629	1.84782	-0.00659817	0.0450029	-0.386846	-0.183646	-0.142981	1.94334	1.85498	0.0627007	0.0400454
2.23	-0.142082	0.0811093	-0.0281129	1.01641	0.968614	-0.35123	0.828216	-0.0445665	0.0321553	-2.09543	0.222692	0.0519412	3.09509e-06	0.273038	0.171704	-0.218459	-0.830624	0.414688	0.0499489	-5.31964e-05	-0.0739478	-0.0795705	-0.0256998	-0.652275	-0.306562	-0.253476	1.65922	1.84023	-0.00659817	0.0450029	-0.367763	-0.171153	-0.151008	1.98609	1.85241	0.0627007	0.0400454
2.24	-0.139674	0.0620153	-0.0407123	1.01867	0.975254	-0.350642	0.873528	-0.0148962	0.0293564	-2.01805	0.219155	0.0519412	3.09509e-06	0.191272	0.153018	-0.221265	-0.770311	0.344366	0.0499489	-5.31964e-05	-0.0695593	-0.0535094	-0.0321502	-0.694249	-0.310207	-0.272844	1.69497	1.83718	-0.00659817	0.0450029	-0.35487	-0.158538	-0.159673	2.03586	1.8465	0.0627007	0.0400454
2.25	-0.137534	0.0400037	-0.0531792	1.0217	0.982531	-0.350035	0.908415	0.0151099	0.0190854	-1.92571	0.212312	0.0519412	3.09509e-06	0.108777	0.131074	-0.226077	-0.705973	0.255583	0.0499489	-5.31964e-05	-0.0637763	-0.0238389	-0.0367277	-0.738053	-0.31279	-0.293116	1.7317	1.83544	-0.00659817	0.0450029	-0.347286	-0.146659	-0.167839	2.0902	1.83776	0.0627007	0.0400454
